HIERARCHY
ROOT Hips
{
 OFFSET 0.000000 0.000000 0.000000
 CHANNELS 6 Xposition Yposition Zposition Yrotation Xrotation Zrotation
 JOINT Chest
 {
  OFFSET 0.000000 10.383400 0.001500
  CHANNELS 3 Yrotation Xrotation Zrotation
  JOINT Chest2
  {
   OFFSET 0.000000 10.418200 -0.003100
   CHANNELS 3 Yrotation Xrotation Zrotation
   JOINT Chest3
   {
    OFFSET 0.000000 10.375100 0.000000
    CHANNELS 3 Yrotation Xrotation Zrotation
    JOINT Chest4
    {
     OFFSET 0.000000 10.364600 0.000000
     CHANNELS 3 Yrotation Xrotation Zrotation
     JOINT Neck
     {
      OFFSET 0.000000 15.642200 0.000000
      CHANNELS 3 Yrotation Xrotation Zrotation
      JOINT Head
      {
       OFFSET 0.000000 9.697300 -0.006500
       CHANNELS 3 Yrotation Xrotation Zrotation
       End Site
       {
        OFFSET 0.000000 18.492200 -0.003400
       }
      }
     }
     JOINT RightCollar
     {
      OFFSET -3.166800 10.349300 0.000000
      CHANNELS 3 Yrotation Xrotation Zrotation
      JOINT RightShoulder
      {
       OFFSET -14.729700 0.000000 0.000000
       CHANNELS 3 Yrotation Xrotation Zrotation
       JOINT RightElbow
       {
        OFFSET 0.000000 -32.224300 0.000000
        CHANNELS 3 Yrotation Xrotation Zrotation
        JOINT RightWrist
        {
         OFFSET 0.000000 -26.084100 0.000000
         CHANNELS 3 Yrotation Xrotation Zrotation
         End Site
         {
          OFFSET 0.000000 -19.319400 0.000000
         }
        }
       }
      }
     }
     JOINT LeftCollar
     {
      OFFSET 3.166800 10.349300 0.000000
      CHANNELS 3 Yrotation Xrotation Zrotation
      JOINT LeftShoulder
      {
       OFFSET 14.729700 0.000000 0.000000
       CHANNELS 3 Yrotation Xrotation Zrotation
       JOINT LeftElbow
       {
        OFFSET 0.000000 -32.224300 0.000000
        CHANNELS 3 Yrotation Xrotation Zrotation
        JOINT LeftWrist
        {
         OFFSET 0.000000 -26.084100 0.000000
         CHANNELS 3 Yrotation Xrotation Zrotation
         End Site
         {
          OFFSET 0.000000 -19.319400 0.000000
         }
        }
       }
      }
     }
    }
   }
  }
 }
 JOINT RightHip
 {
  OFFSET -8.428900 -0.007500 -0.000800
  CHANNELS 3 Yrotation Xrotation Zrotation
  JOINT RightKnee
  {
   OFFSET 0.000000 -43.834600 0.000700
   CHANNELS 3 Yrotation Xrotation Zrotation
   JOINT RightAnkle
   {
    OFFSET 0.000000 -42.757000 0.001200
    CHANNELS 3 Yrotation Xrotation Zrotation
    JOINT RightToe
    {
     OFFSET 0.000000 -6.946900 15.649300
     CHANNELS 3 Yrotation Xrotation Zrotation
     End Site
     {
      OFFSET 0.000000 -1.580800 6.825800
     }
    }
   }
  }
 }
 JOINT LeftHip
 {
  OFFSET 8.428900 -0.007500 -0.000800
  CHANNELS 3 Yrotation Xrotation Zrotation
  JOINT LeftKnee
  {
   OFFSET 0.000000 -43.834600 0.000700
   CHANNELS 3 Yrotation Xrotation Zrotation
   JOINT LeftAnkle
   {
    OFFSET 0.000000 -42.757000 0.001200
    CHANNELS 3 Yrotation Xrotation Zrotation
    JOINT LeftToe
    {
     OFFSET 0.000000 -6.946900 15.649300
     CHANNELS 3 Yrotation Xrotation Zrotation
     End Site
     {
      OFFSET 0.000000 -1.580800 6.825800
     }
    }
   }
  }
 }
}
MOTION
Frames: 16
Frame Time: 0.008333
129.672987 127.171942 4.157482 -17.054804 -33.397697 -0.607670 -4.125579 21.769434 1.244350 -0.593844 3.025073 0.266902 -0.928111 4.921292 0.409425 -3.421584 18.459191 1.157476 3.542131 12.256123 -3.195750 8.070050 -12.695750 -7.553620 -2.218825 -5.836513 -10.338641 -5.900929 -10.963985 7.136801 -85.133486 -18.343661 80.941802 -13.952064 -13.636427 -0.934684 -0.534252 -2.794297 -0.401442 13.509886 -1.772396 -1.094763 75.730890 -24.263340 -97.235751 22.619846 -20.746053 1.050735 0.431121 -41.064596 1.478267 -24.849594 76.376607 -23.833767 0.828739 13.999000 2.645383 -0.018799 0.004904 -0.008346 -7.553060 -32.136064 -11.721417 5.075998 65.468075 5.088580 -13.934011 9.683180 -6.591660 0.007042 0.001660 0.003126
129.672324 127.168126 4.161362 -17.076720 -33.356372 -0.581156 -4.070511 21.757460 1.237120 -0.584966 3.020180 0.265559 -0.891346 4.918359 0.407518 -3.383922 18.448528 1.166355 3.583601 12.260099 -3.209028 8.153956 -12.682844 -7.595467 -2.216606 -5.757204 -10.303806 -6.183617 -11.047370 6.963839 -84.699626 -18.428831 80.976778 -13.990939 -13.675421 -0.690155 -0.564039 -2.772960 -0.404810 13.575095 -1.816273 -1.072212 75.659546 -24.580571 -97.248473 22.550678 -20.748199 0.979538 0.688354 -41.175115 1.308523 -24.532215 76.517188 -23.481598 1.002011 14.078059 2.645520 -0.015741 -0.002805 -0.006987 -7.536523 -32.183784 -11.713585 5.121421 65.484952 5.103167 -13.964385 9.703830 -6.546636 0.000748 0.002227 0.000332
129.669720 127.163965 4.163756 -17.100445 -33.311913 -0.565846 -3.996080 21.742516 1.252704 -0.576184 3.015754 0.264657 -0.863136 4.915342 0.406555 -3.351051 18.438234 1.175953 3.641266 12.273891 -3.227819 8.269872 -12.649687 -7.653341 -2.211608 -5.661760 -10.267398 -6.557540 -11.175516 6.723233 -84.127591 -18.565734 80.909492 -14.015856 -13.704210 -0.404630 -0.597626 -2.749457 -0.413459 13.667110 -1.887008 -0.970447 75.510928 -24.914481 -97.169949 22.468552 -20.770183 0.850773 0.891454 -41.277014 1.167631 -24.445723 76.614327 -23.329097 1.194584 14.143698 2.639945 0.004978 -0.015721 0.002209 -7.526123 -32.235205 -11.691494 5.166660 65.508080 5.113193 -13.962737 9.721135 -6.501391 -0.004426 0.003321 -0.001965
129.669753 127.160546 4.167675 -17.112291 -33.274520 -0.540723 -3.945853 21.731015 1.247524 -0.509000 3.038640 0.266651 -0.938183 4.873561 0.413978 -3.272154 18.445914 1.178113 3.717428 12.297600 -3.254671 8.422991 -12.595307 -7.732860 -2.196424 -5.557045 -10.226061 -7.004613 -11.349267 6.408445 -83.438589 -18.785310 80.713497 -14.020941 -13.687183 -0.065521 -0.627306 -2.733550 -0.428514 13.840263 -1.976501 -0.787935 75.222555 -25.288712 -96.985406 22.363814 -20.807118 0.660503 1.051494 -41.358697 1.045258 -24.149702 76.733537 -23.047036 1.329840 14.165907 2.742885 -0.001616 -0.023725 -0.000717 -7.537602 -32.292762 -11.646035 5.261630 65.545214 5.097305 -13.966515 9.743451 -6.421702 -0.008180 0.002034 -0.003631
129.671310 127.158053 4.172838 -17.119957 -33.245276 -0.508412 -3.894857 21.728584 1.242755 -0.530619 3.023102 0.265634 -0.876924 4.892196 0.414454 -3.243727 18.438305 1.188383 3.812183 12.330097 -3.289068 8.613344 -12.521578 -7.833190 -2.169943 -5.448905 -10.166808 -7.495962 -11.575814 6.013191 -82.659202 -19.107178 80.358389 -14.006816 -13.606997 0.342172 -0.655289 -2.731643 -0.446896 14.082236 -2.095522 -0.524415 74.804069 -25.707175 -96.681268 22.223975 -20.844561 0.447535 1.137827 -41.405242 0.964487 -23.891174 76.818402 -22.836693 1.447704 14.177211 2.859994 -0.003156 -0.037039 -0.001400 -7.519508 -32.330415 -11.662660 5.310252 65.560115 5.113460 -13.927473 9.768872 -6.386459 -0.012173 0.003600 -0.005404
129.667043 127.156047 4.175948 -17.128740 -33.218848 -0.510590 -3.828626 21.735258 1.276780 -0.552450 3.004747 0.263832 -0.811541 4.919372 0.416825 -3.212585 18.432893 1.201470 3.924347 12.368889 -3.329952 8.838615 -12.433472 -7.951996 -2.127870 -5.341606 -10.077431 -7.997385 -11.867146 5.538947 -81.814014 -19.508456 79.826404 -13.966629 -13.466055 0.817602 -0.684025 -2.749755 -0.470952 14.350758 -2.262660 -0.186041 74.289306 -26.154626 -96.241439 22.050477 -20.862258 0.256349 1.182367 -41.442591 0.930110 -23.807239 76.864233 -22.754771 1.550887 14.192761 2.945618 0.016777 -0.054875 0.007442 -7.526617 -32.364623 -11.627319 5.303687 65.583714 5.073817 -13.888525 9.790385 -6.365715 0.000135 0.003506 0.000060
129.667996 127.152262 4.176862 -17.138007 -33.173890 -0.489914 -3.760415 21.727202 1.293000 -0.544460 3.003323 0.264198 -0.803412 4.922493 0.421829 -3.164699 18.436763 1.217091 4.054365 12.415247 -3.378696 9.100005 -12.328297 -8.091862 -2.056096 -5.227690 -9.955147 -8.467200 -12.236473 5.001319 -80.944949 -19.927377 79.120342 -13.904571 -13.263184 1.348855 -0.709115 -2.789995 -0.511328 14.601120 -2.495343 0.206749 73.707655 -26.619157 -95.637750 21.864937 -20.842954 0.090916 1.239440 -41.483288 0.851791 -23.654215 76.901647 -22.593019 1.636698 14.178562 3.062553 0.012953 -0.066590 0.005744 -7.516222 -32.422579 -11.607741 5.328433 65.605580 5.042605 -13.868583 9.820154 -6.323972 -0.000346 0.005266 -0.000154
129.670830 127.147424 4.175425 -17.135994 -33.117793 -0.470808 -3.651897 21.748254 1.336611 -0.590050 2.966554 0.252481 -0.794600 4.917717 0.433880 -3.120770 18.440824 1.237066 4.204597 12.475279 -3.436202 9.401443 -12.194075 -8.254633 -1.945702 -5.092860 -9.804508 -8.860520 -12.695928 4.432920 -80.100678 -20.288778 78.243422 -13.845288 -12.997322 1.940341 -0.727578 -2.845509 -0.578297 14.791903 -2.806190 0.618547 73.086900 -27.096390 -94.838981 21.688781 -20.769425 -0.073731 1.223449 -41.511857 0.828155 -23.544580 76.918035 -22.523575 1.687003 14.105780 3.200142 0.010318 -0.056758 0.004577 -7.512075 -32.491775 -11.587063 5.395876 65.623961 5.044540 -13.887249 9.837266 -6.272904 -0.013116 0.007567 -0.005823
129.670965 127.145236 4.176118 -17.131921 -33.090071 -0.464800 -3.631166 21.737658 1.347027 -0.551806 2.986344 0.259485 -0.790816 4.920212 0.445110 -3.078381 18.446911 1.262628 4.372803 12.552373 -3.500334 9.737088 -12.024932 -8.434681 -1.801399 -4.944439 -9.634051 -9.134169 -13.249920 3.873391 -79.333509 -20.498401 77.191137 -13.798245 -12.665570 2.600898 -0.746107 -2.915336 -0.671864 14.870126 -3.201972 1.019529 72.468735 -27.549771 -93.846844 21.519658 -20.633404 -0.198145 1.162307 -41.492306 0.844327 -23.421385 76.909038 -22.447351 1.703542 14.017944 3.342551 0.005626 -0.052483 0.002496 -7.510900 -32.531110 -11.570230 5.418150 65.641798 5.034451 -13.900754 9.855799 -6.252331 -0.014283 0.004904 -0.006341
129.670503 127.145226 4.178829 -17.118762 -33.088231 -0.464270 -3.622013 21.752134 1.355974 -0.459213 3.051830 0.295354 -0.873680 4.858459 0.420584 -2.988473 18.489463 1.303288 4.551544 12.647514 -3.566828 10.090885 -11.820151 -8.620442 -1.632515 -4.806097 -9.444406 -9.256726 -13.889878 3.338528 -78.711770 -20.424249 75.994138 -13.753737 -12.278066 3.270996 -0.780117 -3.003275 -0.779592 14.790792 -3.685624 1.396519 71.896242 -27.891680 -92.712729 21.358818 -20.450760 -0.139519 1.064947 -41.430225 0.870987 -23.552860 76.877324 -22.596397 1.719879 13.876667 3.451208 0.021056 -0.034221 0.009343 -7.512498 -32.547812 -11.555999 5.428023 65.659335 5.023571 -13.957558 9.889668 -6.244053 -0.021054 0.008299 -0.009348
129.672233 127.142997 4.177405 -17.135536 -33.070451 -0.442402 -3.551188 21.773875 1.386984 -0.443655 3.061904 0.298134 -0.841995 4.882480 0.435354 -2.952347 18.497981 1.331986 4.737293 12.763790 -3.631558 10.454036 -11.574881 -8.802040 -1.444461 -4.690635 -9.229949 -9.225187 -14.601939 2.815138 -78.283870 -19.935639 74.748390 -13.726380 -11.915107 3.758096 -0.877350 -3.102281 -0.832836 14.582714 -4.242038 1.697246 71.392259 -28.013871 -91.515914 21.245245 -20.255529 0.259237 1.037843 -41.400265 0.880916 -23.564891 76.841989 -22.623705 1.671035 13.787382 3.613950 0.020136 -0.063388 0.008931 -7.488999 -32.591962 -11.553662 5.445022 65.686295 5.014520 -13.943635 9.955162 -6.244563 -0.017583 0.016746 -0.007808
129.669663 127.141648 4.174896 -17.127781 -33.069388 -0.457242 -3.420704 21.848714 1.476697 -0.480550 3.037983 0.289001 -0.806094 4.915529 0.449318 -2.907903 18.512963 1.361155 4.932578 12.901513 -3.691017 10.829488 -11.288853 -8.973688 -1.240205 -4.596616 -8.987195 -9.067865 -15.369029 2.285103 -78.046081 -18.997557 73.563793 -13.770688 -11.723577 3.810643 -0.945718 -3.231759 -0.963868 14.152861 -4.861423 2.067543 70.971487 -27.815249 -90.347374 21.228832 -20.086177 1.106195 0.855410 -41.299416 0.978570 -23.705505 76.740517 -22.806954 1.651189 13.606553 3.738168 0.026473 -0.037700 0.011745 -7.505075 -32.615842 -11.514550 5.459456 65.714828 5.001252 -13.960874 9.985448 -6.242388 -0.020621 0.017512 -0.009157
129.666491 127.142222 4.174312 -17.111659 -33.096278 -0.474706 -3.314986 21.927794 1.539555 -0.490018 3.041357 0.288648 -0.788486 4.937932 0.455907 -2.830362 18.554672 1.391302 5.140844 13.051532 -3.741081 11.223182 -10.979011 -9.129970 -1.020655 -4.521984 -8.709573 -8.830682 -16.159725 1.740631 -77.946989 -17.743890 72.502889 -13.956035 -11.828668 3.297875 -1.035459 -3.374990 -1.088555 13.585465 -5.514028 2.442434 70.656268 -27.221739 -89.327096 21.320684 -19.990924 2.477970 0.646685 -41.159491 1.085929 -23.902762 76.619681 -23.047474 1.617663 13.403180 3.857769 0.036162 -0.016022 0.016048 -7.534312 -32.613853 -11.471353 5.476086 65.743144 4.980089 -13.984671 10.016710 -6.245685 -0.022438 0.017020 -0.009963
129.663263 127.141174 4.170374 -17.103948 -33.114488 -0.490609 -3.214531 21.993834 1.588394 -0.478067 3.059971 0.291443 -0.768648 4.966705 0.460587 -2.743683 18.607447 1.413915 5.364011 13.200151 -3.779163 11.639562 -10.670549 -9.268375 -0.784971 -4.464518 -8.395185 -8.559784 -16.932873 1.191652 -77.888888 -16.441746 71.584896 -14.285861 -12.271709 2.296023 -1.144272 -3.516260 -1.176000 12.936184 -6.177161 2.805407 70.458665 -26.237407 -88.593094 21.488432 -20.028369 4.391512 0.469486 -41.040720 1.187702 -24.093794 76.504271 -23.274129 1.553963 13.203613 3.998466 0.038473 -0.015833 0.017074 -7.610974 -32.636734 -11.370705 5.442931 65.779175 4.855220 -14.010612 10.052509 -6.248445 -0.005465 -0.001037 -0.002426
129.662057 127.139783 4.166025 -17.109278 -33.134080 -0.486264 -3.101850 22.072410 1.616826 -0.465047 3.082940 0.293095 -0.747148 5.002203 0.463385 -2.650013 18.671442 1.428929 5.600335 13.336325 -3.806525 12.077147 -10.383947 -9.392104 -0.544046 -4.418989 -8.056500 -8.292225 -17.648707 0.662113 -77.785826 -15.362240 70.803734 -14.628493 -13.002481 1.038508 -1.247870 -3.660529 -1.262487 12.259170 -6.802974 3.200398 70.360007 -24.976204 -88.267080 21.667312 -20.232285 6.736679 0.312975 -40.920983 1.272150 -24.305003 76.380463 -23.521116 1.484271 12.989261 4.134155 0.039237 -0.017377 0.017413 -7.651575 -32.645770 -11.316764 5.432969 65.799220 4.788724 -14.019356 10.074637 -6.256194 -0.004360 -0.003698 -0.001935
129.661093 127.137269 4.159576 -17.111841 -33.142097 -0.482364 -2.984768 22.156426 1.640094 -0.451063 3.110131 0.294122 -0.724150 5.044131 0.465101 -2.549819 18.745777 1.439452 5.844989 13.448714 -3.827827 12.530413 -10.140252 -9.509804 -0.320117 -4.384193 -7.713610 -8.056756 -18.270672 0.176310 -77.600772 -14.708157 70.157113 -14.800946 -13.860879 -0.191591 -1.357045 -3.822757 -1.357897 11.656989 -7.316288 3.632929 70.338018 -23.641168 -88.419658 21.771685 -20.571476 9.234601 0.157235 -40.817075 1.353033 -24.533352 76.252788 -23.782510 1.431772 12.756645 4.266131 0.022883 -0.013070 0.010156 -7.700763 -32.677457 -11.255905 5.417154 65.825963 4.714339 -14.034619 10.115235 -6.283594 -0.002822 -0.002484 -0.001253
